<svg width="102" height="84.6703125" viewBox="0 0 350 242.63776863006444" class="looka-1j8o68f"><defs id="SvgjsDefs2448"><linearGradient id="SvgjsLinearGradient2455"><stop id="SvgjsStop2456" stop-color="#ef4136" offset="0"></stop><stop id="SvgjsStop2457" stop-color="#fbb040" offset="1"></stop></linearGradient><linearGradient id="SvgjsLinearGradient2458"><stop id="SvgjsStop2459" stop-color="#ef4136" offset="0"></stop><stop id="SvgjsStop2460" stop-color="#fbb040" offset="1"></stop></linearGradient></defs><g id="SvgjsG2449" featurekey="ghXSps-0" transform="matrix(1.5486273762693135,0,0,1.5486273762693135,108,-0.0007778574764622155)" fill="url(#SvgjsLinearGradient2455)"><path xmlns="http://www.w3.org/2000/svg" d="M43.463,100c-0.207,0-0.414-0.054-0.598-0.161l-42.266-24.4C0.229,75.226,0,74.83,0,74.403V25.599  c0-0.428,0.228-0.822,0.598-1.035L42.865,0.163c0.568-0.334,1.303-0.136,1.634,0.437c0.331,0.572,0.135,1.304-0.438,1.633  L2.394,26.291v47.42l41.069,23.712l41.069-23.712V25.599c0-0.661,0.535-1.196,1.196-1.196s1.196,0.535,1.196,1.196v48.805  c0,0.427-0.229,0.822-0.598,1.035l-42.266,24.4C43.876,99.946,43.67,100,43.463,100z"></path><path xmlns="http://www.w3.org/2000/svg" d="M16.785,34.626c-0.18,0-0.363-0.04-0.536-0.126L0.66,26.669c-0.59-0.297-0.829-1.017-0.532-1.608  c0.297-0.589,1.012-0.832,1.606-0.533l15.589,7.831c0.59,0.297,0.829,1.017,0.532,1.608C17.645,34.385,17.223,34.626,16.785,34.626z  "></path><path xmlns="http://www.w3.org/2000/svg" d="M43.463,100c-0.661,0-1.196-0.535-1.196-1.196V81.364c0-0.661,0.535-1.196,1.196-1.196s1.196,0.535,1.196,1.196v17.439  C44.659,99.465,44.124,100,43.463,100z"></path><path xmlns="http://www.w3.org/2000/svg" d="M43.462,81.577c-0.192,0-0.386-0.047-0.566-0.143L16.22,67.077c-0.388-0.208-0.629-0.614-0.629-1.054l-0.001-32.594  c0-0.661,0.535-1.196,1.197-1.196c0.661,0,1.196,0.535,1.196,1.196l0.001,31.878L44.03,79.326c0.582,0.313,0.8,1.04,0.487,1.622  C44.301,81.348,43.888,81.577,43.462,81.577z"></path><path xmlns="http://www.w3.org/2000/svg" d="M16.788,34.626c-0.41,0-0.81-0.21-1.033-0.591c-0.334-0.568-0.144-1.302,0.425-1.636l26.676-15.675  c0.569-0.336,1.304-0.147,1.638,0.425c0.335,0.568,0.145,1.301-0.425,1.636L17.394,34.46C17.203,34.572,16.994,34.626,16.788,34.626  z"></path><path xmlns="http://www.w3.org/2000/svg" d="M16.99,67.203c-0.41,0-0.81-0.21-1.033-0.591c-0.334-0.568-0.144-1.302,0.425-1.636L43.06,49.301  c0.569-0.336,1.304-0.147,1.639,0.425c0.334,0.568,0.144,1.301-0.426,1.636L17.596,67.037C17.405,67.149,17.196,67.203,16.99,67.203  z"></path><path xmlns="http://www.w3.org/2000/svg" d="M43.463,51.701c-0.661,0-1.196-0.535-1.196-1.197v-32.75c0-0.661,0.535-1.196,1.196-1.196s1.196,0.535,1.196,1.196v32.75  C44.659,51.166,44.124,51.701,43.463,51.701z"></path><path xmlns="http://www.w3.org/2000/svg" d="M43.463,100c-0.207,0-0.414-0.054-0.598-0.161l-42.266-24.4C0.229,75.226,0,74.83,0,74.403V25.599  c0-0.661,0.535-1.196,1.197-1.196c0.661,0,1.196,0.535,1.196,1.196v48.112l41.069,23.712l41.069-23.712v-47.42L42.865,2.233  c-0.573-0.33-0.769-1.061-0.438-1.633c0.329-0.573,1.062-0.771,1.634-0.437l42.266,24.401c0.369,0.213,0.598,0.607,0.598,1.035  v48.805c0,0.427-0.229,0.822-0.598,1.035l-42.266,24.4C43.876,99.946,43.67,100,43.463,100z"></path><path xmlns="http://www.w3.org/2000/svg" d="M70.143,34.626c-0.438,0-0.86-0.241-1.07-0.659c-0.295-0.591-0.057-1.311,0.532-1.608l15.587-7.831  c0.596-0.297,1.309-0.056,1.607,0.533c0.295,0.591,0.057,1.311-0.532,1.608L70.68,34.5C70.507,34.586,70.324,34.626,70.143,34.626z"></path><path xmlns="http://www.w3.org/2000/svg" d="M43.463,100c-0.661,0-1.196-0.535-1.196-1.196V80.381c0-0.662,0.535-1.197,1.196-1.197s1.196,0.535,1.196,1.197v18.423  C44.659,99.465,44.124,100,43.463,100z"></path><path xmlns="http://www.w3.org/2000/svg" d="M43.464,81.577c-0.426,0-0.839-0.229-1.055-0.629c-0.313-0.582-0.095-1.309,0.487-1.622l26.045-14.019l0.004-31.878  c0-0.661,0.538-1.196,1.197-1.196l0,0c0.661,0,1.196,0.535,1.196,1.196l-0.005,32.594c0,0.439-0.24,0.846-0.629,1.054L44.03,81.435  C43.85,81.53,43.656,81.577,43.464,81.577z"></path><path xmlns="http://www.w3.org/2000/svg" d="M70.138,34.626c-0.206,0-0.416-0.054-0.605-0.166L42.856,18.785c-0.569-0.334-0.759-1.068-0.425-1.636  c0.336-0.573,1.068-0.762,1.638-0.425l26.676,15.675c0.57,0.334,0.76,1.068,0.425,1.636C70.946,34.416,70.549,34.626,70.138,34.626z  "></path><path xmlns="http://www.w3.org/2000/svg" d="M69.937,67.203c-0.206,0-0.414-0.054-0.603-0.166L42.657,51.362c-0.569-0.335-0.759-1.068-0.425-1.636  c0.336-0.572,1.068-0.762,1.638-0.425l26.674,15.676c0.57,0.334,0.762,1.067,0.426,1.636C70.747,66.993,70.348,67.203,69.937,67.203  z"></path><path xmlns="http://www.w3.org/2000/svg" d="M43.463,51.701c-0.661,0-1.196-0.535-1.196-1.197v-32.75c0-0.661,0.535-1.196,1.196-1.196s1.196,0.535,1.196,1.196v32.75  C44.659,51.166,44.124,51.701,43.463,51.701z"></path></g><g id="SvgjsG2450" featurekey="anH1Ye-0" transform="matrix(2.8916058764991215,0,0,2.8916058764991215,-3.35426237551494,158.46001637193322)" fill="#fae3d9"><path d="M4 5.720000000000001 l0 2.34 l-2.84 0 l0 -2.34 l2.84 0 z M4 9.66 l0 10.34 l-2.84 0 l0 -10.34 l2.84 0 z M12.18 9.38 c1.32 0 2.2766 0.33338 2.87 1 s0.89 1.7267 0.89 3.18 l0 6.44 l-2.84 0 l0 -5.86 c0 -0.85334 -0.13666 -1.4867 -0.41 -1.9 s-0.74334 -0.62 -1.41 -0.62 c-0.77334 0 -1.3333 0.23334 -1.68 0.7 s-0.52 1.2333 -0.52 2.3 l0 5.38 l-2.84 0 l0 -10.34 l2.7 0 l0 1.44 l0.06 0 c0.70666 -1.1467 1.7667 -1.72 3.18 -1.72 z M22.34 9.38 c1.3867 0 2.47 0.28002 3.25 0.84002 s1.2167 1.38 1.31 2.46 l-2.7 0 c-0.04 -0.49334 -0.22 -0.85 -0.54 -1.07 s-0.78666 -0.33 -1.4 -0.33 c-0.53334 0 -0.93 0.08 -1.19 0.24 s-0.39 0.4 -0.39 0.72 c0 0.24 0.08666 0.44 0.26 0.6 s0.43668 0.3 0.79002 0.42 s0.74334 0.22 1.17 0.3 c1.2933 0.25334 2.2066 0.51334 2.74 0.78 s0.92334 0.58666 1.17 0.96 s0.37 0.83334 0.37 1.38 c0 1.16 -0.42334 2.05 -1.27 2.67 s-1.9967 0.93 -3.45 0.93 c-1.52 0 -2.7034 -0.32666 -3.55 -0.98 s-1.2833 -1.54 -1.31 -2.66 l2.7 0 c0 0.53334 0.20666 0.95668 0.62 1.27 s0.93334 0.47 1.56 0.47 c0.53334 0 0.97668 -0.11666 1.33 -0.35 s0.53 -0.55668 0.53 -0.97002 c0 -0.26666 -0.11 -0.48666 -0.33 -0.66 s-0.53 -0.32668 -0.93 -0.46002 s-1.02 -0.28668 -1.86 -0.46002 c-0.66666 -0.13334 -1.26 -0.31334 -1.78 -0.54 s-0.91666 -0.52332 -1.19 -0.88998 s-0.41 -0.81666 -0.41 -1.35 c0 -0.68 0.16334 -1.2733 0.49 -1.78 s0.82666 -0.89 1.5 -1.15 s1.51 -0.39 2.51 -0.39 z M31.759999999999998 5.720000000000001 l0 2.34 l-2.84 0 l0 -2.34 l2.84 0 z M31.759999999999998 9.66 l0 10.34 l-2.84 0 l0 -10.34 l2.84 0 z M38.120000000000005 9.38 c1.4267 0 2.4534 0.55332 3.08 1.66 l0.04 0 l0 -1.38 l2.7 0 l0 9.7 c0 1.4933 -0.46334 2.6266 -1.39 3.4 s-2.2434 1.16 -3.95 1.16 c-1.3067 0 -2.3834 -0.31334 -3.23 -0.94 s-1.2967 -1.42 -1.35 -2.38 l2.82 0 c0.22666 0.94666 0.93332 1.42 2.12 1.42 c0.73334 0 1.2967 -0.21666 1.69 -0.65 s0.59 -1.05 0.59 -1.85 l0 -1.42 l-0.04 0 c-0.28 0.50666 -0.69 0.9 -1.23 1.18 s-1.1633 0.42 -1.87 0.42 c-1.3867 0 -2.47 -0.45334 -3.25 -1.36 s-1.17 -2.1866 -1.17 -3.84 c0 -1.4667 0.41 -2.6866 1.23 -3.66 s1.89 -1.46 3.21 -1.46 z M36.52 14.46 c0 0.97334 0.20336 1.7333 0.61002 2.28 s0.97 0.82 1.69 0.82 c0.73334 0 1.32 -0.26334 1.76 -0.79 s0.66 -1.2233 0.66 -2.09 c0 -1.04 -0.21 -1.8267 -0.63 -2.36 s-1.0233 -0.8 -1.81 -0.8 c-0.73334 0 -1.2967 0.27666 -1.69 0.83 s-0.59 1.2567 -0.59 2.11 z M49.06 5.720000000000001 l0 5.38 l0.06 0 c0.32 -0.53334 0.75334 -0.95334 1.3 -1.26 s1.1267 -0.46 1.74 -0.46 c1.32 0 2.2766 0.33334 2.87 1 s0.89 1.72 0.89 3.16 l0 6.46 l-2.84 0 l0 -5.88 c0 -0.84 -0.13666 -1.4667 -0.41 -1.88 s-0.74334 -0.62 -1.41 -0.62 c-0.76 0 -1.3167 0.23 -1.67 0.69 s-0.53 1.2167 -0.53 2.27 l0 5.42 l-2.84 0 l0 -14.28 l2.84 0 z M61.68 6.5600000000000005 l0.000019531 3.1 l2.08 0 l0 1.9 l-2.08 0 l0 5.12 c0 0.48 0.08 0.8 0.24 0.96 s0.48 0.24 0.96 0.24 c0.34666 0 0.64 -0.02666 0.88 -0.08 l0 2.22 c-0.4 0.06666 -0.96 0.1 -1.68 0.1 c-1.0933 0 -1.9067 -0.18666 -2.44 -0.56 s-0.8 -1.02 -0.8 -1.94 l0 -6.06 l-1.72 0 l0 -1.9 l1.72 0 l0 -3.1 l2.84 0 z M69.88000000000001 9.38 c3.0134 0.01334 4.52 0.9933 4.52 2.94 l0 5.48 c0 1.0133 0.12 1.7467 0.36 2.2 l-2.88 0 c-0.10666 -0.32 -0.17332 -0.65334 -0.19998 -1 c-0.84 0.85334 -2 1.28 -3.48 1.28 c-1.08 0 -1.9367 -0.27334 -2.57 -0.82 s-0.95 -1.3067 -0.95 -2.28 c0 -0.94666 0.3 -1.68 0.9 -2.2 c0.61334 -0.54666 1.7267 -0.89332 3.34 -1.04 c1.1467 -0.12 1.8733 -0.27 2.18 -0.45 s0.46 -0.45666 0.46 -0.83 c0 -0.46666 -0.14 -0.81332 -0.42 -1.04 s-0.74666 -0.34 -1.4 -0.34 c-0.6 0 -1.0533 0.12334 -1.36 0.37 s-0.48666 0.64332 -0.54 1.19 l-2.84 0 c0.06666 -1.1333 0.53332 -1.9933 1.4 -2.58 s2.0266 -0.88 3.48 -0.88 z M67.52000000000001 17.06 c0 0.88 0.58 1.32 1.74 1.32 c1.52 -0.01334 2.2866 -0.79334 2.3 -2.34 l0 -1.1 c-0.22666 0.22666 -0.8 0.39332 -1.72 0.49998 c-0.8 0.09334 -1.3867 0.25668 -1.76 0.49002 s-0.56 0.61 -0.56 1.13 z M81.56000000000002 9.38 c1.4 0 2.54 0.35664 3.42 1.07 s1.36 1.6633 1.44 2.85 l-2.78 0 c-0.18666 -1.1867 -0.88666 -1.78 -2.1 -1.78 c-0.74666 0 -1.3367 0.30666 -1.77 0.92 s-0.65 1.4267 -0.65 2.44 c0 0.97334 0.20666 1.76 0.62 2.36 s0.99334 0.9 1.74 0.9 c1.2933 0 2.0466 -0.7 2.26 -2.1 l2.74 0 c-0.18666 1.3733 -0.71666 2.4234 -1.59 3.15 s-2.0034 1.09 -3.39 1.09 c-1.5333 0 -2.7866 -0.49 -3.76 -1.47 s-1.46 -2.2566 -1.46 -3.83 c0 -1.7067 0.48 -3.0666 1.44 -4.08 s2.24 -1.52 3.84 -1.52 z M91.68 6.5600000000000005 l0.000019531 3.1 l2.08 0 l0 1.9 l-2.08 0 l0 5.12 c0 0.48 0.08 0.8 0.24 0.96 s0.48 0.24 0.96 0.24 c0.34666 0 0.64 -0.02666 0.88 -0.08 l0 2.22 c-0.4 0.06666 -0.96 0.1 -1.68 0.1 c-1.0933 0 -1.9067 -0.18666 -2.44 -0.56 s-0.8 -1.02 -0.8 -1.94 l0 -6.06 l-1.72 0 l0 -1.9 l1.72 0 l0 -3.1 l2.84 0 z M98.04000000000002 5.720000000000001 l0 2.34 l-2.84 0 l0 -2.34 l2.84 0 z M98.04000000000002 9.66 l0 10.34 l-2.84 0 l0 -10.34 l2.84 0 z M105.30000000000001 9.38 c1.6533 0 2.96 0.50334 3.92 1.51 s1.44 2.3234 1.44 3.95 c0 1.64 -0.49 2.9566 -1.47 3.95 s-2.2766 1.49 -3.89 1.49 c-1.64 0 -2.94 -0.50334 -3.9 -1.51 s-1.44 -2.3166 -1.44 -3.93 c0 -1.6667 0.49 -2.9934 1.47 -3.98 s2.27 -1.48 3.87 -1.48 z M102.80000000000001 14.84 c0 1.0533 0.21334 1.8666 0.64 2.44 s1.0467 0.86 1.86 0.86 c0.84 0 1.47 -0.29334 1.89 -0.88 s0.63 -1.3933 0.63 -2.42 c0 -1.0667 -0.21666 -1.8867 -0.65 -2.46 s-1.0633 -0.86 -1.89 -0.86 c-0.8 0 -1.4133 0.28666 -1.84 0.86 s-0.64 1.3933 -0.64 2.46 z M118.44000000000001 9.38 c1.32 0 2.2766 0.33338 2.87 1 s0.89 1.7267 0.89 3.18 l0 6.44 l-2.84 0 l0 -5.86 c0 -0.85334 -0.13666 -1.4867 -0.41 -1.9 s-0.74334 -0.62 -1.41 -0.62 c-0.77334 0 -1.3333 0.23334 -1.68 0.7 s-0.52 1.2333 -0.52 2.3 l0 5.38 l-2.84 0 l0 -10.34 l2.7 0 l0 1.44 l0.06 0 c0.70666 -1.1467 1.7667 -1.72 3.18 -1.72 z"></path></g><g id="SvgjsG2451" featurekey="XxVAgm-0" transform="matrix(0.3189661855599857,0,0,0.3189661855599857,34.61724048607106,236.16275469816892)" fill="url(#SvgjsLinearGradient2458)"><path d="M8.36 12.280000000000001 c1.68 0.4 2.98 1.84 2.98 3.68 c0 2.5 -1.6 4.04 -5.08 4.04 l-5.06 0 l0 -14 l4.96 0 c2.82 0 4.22 1.6 4.22 3.44 c0 1.4 -0.84 2.38 -2.02 2.84 z M5.98 7.9399999999999995 l-2.58 0 l0 3.66 l2.58 0 c1.44 0 2.22 -0.76 2.22 -1.84 c0 -1.14 -0.78 -1.82 -2.22 -1.82 z M6.16 18.06 c2.06 0 2.98 -0.84 2.98 -2.34 c0 -1.28 -0.92 -2.32 -2.98 -2.32 l-2.76 0 l0 4.66 l2.76 0 z M31.775999999999996 6 l2.2 0 l0 8.92 c0 3.42 -2.34 5.38 -5.22 5.38 s-5.22 -1.96 -5.22 -5.38 l0 -8.92 l2.2 0 l0 8.92 c0 2.38 1.46 3.3 3.02 3.3 s3.02 -0.92 3.02 -3.3 l0 -8.92 z M48.87199999999999 6 l0 14 l-2.2 0 l0 -14 l2.2 0 z M63.767999999999994 17.96 l5.94 0 l0 2.04 l-8.14 0 l0 -14 l2.2 0 l0 11.96 z M86.524 6 c4.04 0 7.08 3.1 7.08 6.96 c0 3.94 -3.04 7.04 -7.08 7.04 l-4.52 0 l0 -14 l4.52 0 z M86.504 17.92 c3.06 0 4.86 -2.22 4.86 -4.96 c0 -2.66 -1.8 -4.88 -4.86 -4.88 l-2.3 0 l0 9.84 l2.3 0 z M124.39600000000002 17.96 l5.94 0 l0 2.04 l-8.14 0 l0 -14 l2.2 0 l0 11.96 z M153.89200000000002 20 l-1.28 -2.96 l-7.16 0 l-1.28 2.96 l-2.34 0 l6.24 -14 l1.92 0 l6.24 14 l-2.34 0 z M146.252 15.219999999999999 l5.56 0 l-2.78 -6.44 z M172.54800000000003 5.76 c2.3 0 3.88 1.48 4.54 2.92 l-1.64 0.94 c-0.7 -1.18 -1.6 -1.9 -2.9 -1.9 s-2.22 0.76 -2.22 1.8 c0 0.98 0.62 1.58 1.96 2.08 l0.98 0.36 c2.78 1.02 4.2 2.22 4.2 4.32 c0 2.58 -2.46 4.02 -4.84 4.02 c-2.44 0 -4.4 -1.46 -5 -3.44 l1.72 -0.88 c0.5 1.28 1.58 2.32 3.28 2.32 c1.4 0 2.56 -0.74 2.56 -2 c0 -1.34 -0.9 -1.88 -2.5 -2.48 l-0.96 -0.36 c-2.1 -0.78 -3.58 -1.84 -3.58 -4.02 c0 -2.12 1.92 -3.68 4.4 -3.68 z M198.30400000000003 6 l0 2.04 l-3.72 0 l0 11.96 l-2.2 0 l0 -11.96 l-3.72 0 l0 -2.04 l9.64 0 z M212.80000000000004 6 l0 14 l-2.2 0 l0 -14 l2.2 0 z M234.99600000000004 6 l2.2 0 l0 14 l-1.68 0 l-7.82 -9.98 l0 9.98 l-2.2 0 l0 -14 l1.7 0 l7.8 10 l0 -10 z M263.1120000000001 12.780000000000001 c0.44 4.58 -2.62 7.42 -6.32 7.42 c-3.84 0 -7.2 -2.96 -7.2 -7.2 s3.44 -7.2 7.2 -7.2 c1.8 0 3.42 0.6 4.66 1.66 l-1.34 1.52 c-0.88 -0.68 -2.02 -1.1 -3.18 -1.1 c-2.72 0 -5.06 2.12 -5.06 5.12 s2.26 5.12 4.92 5.12 c2.22 0 3.86 -1.02 4.28 -3.44 l-3.74 0 l0 -1.9 l5.78 0 z M300.52400000000006 6 l2.2 0 l0 14 l-2.2 0 l0 -5.92 l-6.48 0 l0 5.92 l-2.2 0 l0 -14 l2.2 0 l0 6.04 l6.48 0 l0 -6.04 z M326.68000000000006 20 l-1.28 -2.96 l-7.16 0 l-1.28 2.96 l-2.34 0 l6.24 -14 l1.92 0 l6.24 14 l-2.34 0 z M319.0400000000001 15.219999999999999 l5.56 0 l-2.78 -6.44 z M348.0760000000001 12.280000000000001 c1.68 0.4 2.98 1.84 2.98 3.68 c0 2.5 -1.6 4.04 -5.08 4.04 l-5.06 0 l0 -14 l4.96 0 c2.82 0 4.22 1.6 4.22 3.44 c0 1.4 -0.84 2.38 -2.02 2.84 z M345.6960000000001 7.9399999999999995 l-2.58 0 l0 3.66 l2.58 0 c1.44 0 2.22 -0.76 2.22 -1.84 c0 -1.14 -0.78 -1.82 -2.22 -1.82 z M345.8760000000001 18.06 c2.06 0 2.98 -0.84 2.98 -2.34 c0 -1.28 -0.92 -2.32 -2.98 -2.32 l-2.76 0 l0 4.66 l2.76 0 z M365.45200000000006 6 l0 14 l-2.2 0 l0 -14 l2.2 0 z M387.3880000000001 6 l0 2.04 l-3.72 0 l0 11.96 l-2.2 0 l0 -11.96 l-3.72 0 l0 -2.04 l9.64 0 z M403.5040000000001 5.76 c2.3 0 3.88 1.48 4.54 2.92 l-1.64 0.94 c-0.7 -1.18 -1.6 -1.9 -2.9 -1.9 s-2.22 0.76 -2.22 1.8 c0 0.98 0.62 1.58 1.96 2.08 l0.98 0.36 c2.78 1.02 4.2 2.22 4.2 4.32 c0 2.58 -2.46 4.02 -4.84 4.02 c-2.44 0 -4.4 -1.46 -5 -3.44 l1.72 -0.88 c0.5 1.28 1.58 2.32 3.28 2.32 c1.4 0 2.56 -0.74 2.56 -2 c0 -1.34 -0.9 -1.88 -2.5 -2.48 l-0.96 -0.36 c-2.1 -0.78 -3.58 -1.84 -3.58 -4.02 c0 -2.12 1.92 -3.68 4.4 -3.68 z M455.67600000000004 6 l-4.56 14 l-1.52 0 l-3.6 -10.04 l-3.6 10.04 l-1.52 0 l-4.56 -14 l2.3 0 l3.1 9.6 l3.46 -9.6 l1.64 0 l3.46 9.6 l3.1 -9.6 l2.3 0 z M469.97200000000004 6 l0 14 l-2.2 0 l0 -14 l2.2 0 z M491.9080000000001 6 l0 2.04 l-3.72 0 l0 11.96 l-2.2 0 l0 -11.96 l-3.72 0 l0 -2.04 l9.64 0 z M512.8840000000001 6 l2.2 0 l0 14 l-2.2 0 l0 -5.92 l-6.48 0 l0 5.92 l-2.2 0 l0 -14 l2.2 0 l0 6.04 l6.48 0 l0 -6.04 z M555.3360000000001 20 l-1.28 -2.96 l-7.16 0 l-1.28 2.96 l-2.34 0 l6.24 -14 l1.92 0 l6.24 14 l-2.34 0 z M547.6960000000001 15.219999999999999 l5.56 0 l-2.78 -6.44 z M578.8120000000001 6 l0 2.04 l-3.72 0 l0 11.96 l-2.2 0 l0 -11.96 l-3.72 0 l0 -2.04 l9.64 0 z M598.0080000000002 5.800000000000001 c3.76 0 7.2 2.96 7.2 7.2 s-3.44 7.2 -7.2 7.2 s-7.2 -2.96 -7.2 -7.2 s3.44 -7.2 7.2 -7.2 z M598.0080000000002 18.12 c2.58 0 4.92 -2.12 4.92 -5.12 s-2.34 -5.12 -4.92 -5.12 s-4.92 2.12 -4.92 5.12 s2.34 5.12 4.92 5.12 z M632.3640000000001 6 l0 14 l-2.26 0 l0 -9.06 l-4.2 9.06 l-1.86 0 l-4.18 -9.04 l0 9.04 l-2.26 0 l0 -14 l2.18 0 l5.2 11.02 l5.2 -11.02 l2.18 0 z M647.2600000000001 6 l0 14 l-2.2 0 l0 -14 l2.2 0 z M671.5960000000001 18.5 c-1.26 1.1 -2.9 1.7 -4.72 1.7 c-3.76 0 -7.22 -2.96 -7.22 -7.2 s3.46 -7.2 7.22 -7.2 c1.8 0 3.42 0.6 4.66 1.66 l-1.34 1.52 c-0.88 -0.68 -2.02 -1.1 -3.18 -1.1 c-2.72 0 -5.08 2.12 -5.08 5.12 s2.36 5.12 5.08 5.12 c1.18 0 2.36 -0.44 3.24 -1.16 z M704.7880000000001 6 c3.14 0 5.06 1.92 5.06 4.62 s-1.92 4.5 -5.06 4.5 l-2.5 0 l0 4.88 l-2.2 0 l0 -14 l4.7 0 z M704.6880000000001 13.2 c1.78 0 2.96 -0.84 2.96 -2.58 s-1.18 -2.58 -2.96 -2.58 l-2.4 0 l0 5.16 l2.4 0 z M732.6440000000001 20 l-2.36 0 l-3.3 -4.88 l-0.24 0 l-2.5 0 l0 4.88 l-2.2 0 l0 -14 l4.7 0 c3.14 0 5.06 1.92 5.06 4.62 c0 1.96 -1.02 3.46 -2.78 4.12 z M724.2440000000001 8.04 l0 5.16 l2.4 0 c1.78 0 2.96 -0.84 2.96 -2.58 s-1.18 -2.58 -2.96 -2.58 l-2.4 0 z M746.9400000000002 17.96 l6.34 0 l0 2.04 l-6.74 0 l-1.8 0 l0 -14 l2.2 0 l6.16 0 l0 2.04 l-6.16 0 l0 3.92 l4.74 0 l0 2 l-4.74 0 l0 4 z M777.3160000000003 18.5 c-1.26 1.1 -2.9 1.7 -4.72 1.7 c-3.76 0 -7.22 -2.96 -7.22 -7.2 s3.46 -7.2 7.22 -7.2 c1.8 0 3.42 0.6 4.66 1.66 l-1.34 1.52 c-0.88 -0.68 -2.02 -1.1 -3.18 -1.1 c-2.72 0 -5.08 2.12 -5.08 5.12 s2.36 5.12 5.08 5.12 c1.18 0 2.36 -0.44 3.24 -1.16 z M791.7120000000002 6 l0 14 l-2.2 0 l0 -14 l2.2 0 z M808.8280000000002 5.76 c2.3 0 3.88 1.48 4.54 2.92 l-1.64 0.94 c-0.7 -1.18 -1.6 -1.9 -2.9 -1.9 s-2.22 0.76 -2.22 1.8 c0 0.98 0.62 1.58 1.96 2.08 l0.98 0.36 c2.78 1.02 4.2 2.22 4.2 4.32 c0 2.58 -2.46 4.02 -4.84 4.02 c-2.44 0 -4.4 -1.46 -5 -3.44 l1.72 -0.88 c0.5 1.28 1.58 2.32 3.28 2.32 c1.4 0 2.56 -0.74 2.56 -2 c0 -1.34 -0.9 -1.88 -2.5 -2.48 l-0.96 -0.36 c-2.1 -0.78 -3.58 -1.84 -3.58 -4.02 c0 -2.12 1.92 -3.68 4.4 -3.68 z M828.1440000000001 6 l0 14 l-2.2 0 l0 -14 l2.2 0 z M847.7400000000001 5.800000000000001 c3.76 0 7.2 2.96 7.2 7.2 s-3.44 7.2 -7.2 7.2 s-7.2 -2.96 -7.2 -7.2 s3.44 -7.2 7.2 -7.2 z M847.7400000000001 18.12 c2.58 0 4.92 -2.12 4.92 -5.12 s-2.34 -5.12 -4.92 -5.12 s-4.92 2.12 -4.92 5.12 s2.34 5.12 4.92 5.12 z M876.8360000000001 6 l2.2 0 l0 14 l-1.68 0 l-7.82 -9.98 l0 9.98 l-2.2 0 l0 -14 l1.7 0 l7.8 10 l0 -10 z"></path></g></svg>